# xmcd
#
# Track frame offsets: 
#        150
#        16474
#        29198
#        44425
#        55240
#        71760
#        87893
#        97198
#        113726
#        125434
#        137550
#        162031
#        175931
#        259938
#        274126
#        287602
#        312632
#        325022
#        338615
#
# Disc length: 4666 seconds
#
# Revision: 0
# Processed by: cddbd v1.5.2PL0 Copyright (c) Steve Scherf et al.
# Submitted via: ExactAudioCopyFreeDBPlugin 1.0
#
DISCID=1b123813
DTITLE=The Byrds - Live At The Royal Albert Hall 1971
DYEAR=2008
DGENRE=Folk/Rock
TTITLE0=Lover Of The Bayou
TTITLE1=You Aint Going Nowhere
TTITLE2=Truck Stop Girl
TTITLE3=My Back Pages
TTITLE4=Baby, What You Want Me To Do
TTITLE5=Jamaica, Say You Will
TTITLE6=Black Mountain Rag - Soldiers Joy
TTITLE7=Mr. Tambourine Man
TTITLE8=Pretty Boy Floyd
TTITLE9=Take A Whiff (On Me)
TTITLE10=Chestnut Mare
TTITLE11=Jesus Is Just Alright
TTITLE12=Eight Miles High
TTITLE13=So You Want To Be A Rock 'N' Roll Star
TTITLE14=Mr. Spaceman
TTITLE15=I Trust
TTITLE16=Nashvillw West
TTITLE17=Roll Over Beethoven
TTITLE18=Amazing Grace
EXTD=
EXTT0=
EXTT1=
EXTT2=
EXTT3=
EXTT4=
EXTT5=
EXTT6=
EXTT7=
EXTT8=
EXTT9=
EXTT10=
EXTT11=
EXTT12=
EXTT13=
EXTT14=
EXTT15=
EXTT16=
EXTT17=
EXTT18=
PLAYORDER=
